<?xml version="1.0" encoding="UTF-8"?>
<svg width="17px" height="22px" viewBox="0 0 17 22" version="1.1" xmlns="http://www.w3.org/2000/svg" xmlns:xlink="http://www.w3.org/1999/xlink">
    <!-- Generator: Sketch 53.2 (72643) - https://sketchapp.com -->
    <title>PageIcon</title>
    <desc>Created with Sketch.</desc>
    <g id="Page-1" stroke="none" stroke-width="1" fill="none" fill-rule="evenodd">
        <g id="Search-and-Destroy" transform="translate(-168.000000, -212.000000)" fill-rule="nonzero">
            <g id="Page-Button" transform="translate(148.000000, 203.000000)">
                <g id="PageIcon" transform="translate(20.000000, 9.000000)">
                    <path d="M16.3757813,4.21011521 L12.6614583,0.605741066 C12.2630208,0.219097832 11.7229167,0 11.1606771,0 L2.125,0 C0.951822917,0.00429603593 -3.37507799e-14,0.927943761 -3.37507799e-14,2.06639328 L-3.37507799e-14,19.9379028 C-3.37507799e-14,21.0763523 0.951822917,22 2.125,22 L14.875,22 C16.0481771,22 17,21.0763523 17,19.9379028 L17,5.67076743 C17,5.12517087 16.7742188,4.59675845 16.3757813,4.21011521 Z M15.902344,5.203222 L12.233333,5.203222 L12.233333,1.733939 L15.902344,5.203222 Z M0.875,20.0663933 L0.875,2.06639328 C0.875,1.51410853 1.32271525,1.06639328 1.875,1.06639328 L11.2083333,1.06639328 L11.2083333,5.06639328 C11.2083333,5.70581636 11.765625,6.22023944 12.4583333,6.22023944 L15.975,6.22023944 L15.975,20.0663933 C15.975,20.618678 15.5272847,21.0663933 14.975,21.0663933 L1.875,21.0663933 C1.32271525,21.0663933 0.875,20.618678 0.875,20.0663933 Z" id="Shape" fill="#444444"></path>
                    <polygon id="Path" fill="#FFFFFF" points="15.902344 5.203222 12.233333 5.203222 12.233333 1.733939"></polygon>
                    <path d="M0.875,20.0663933 L0.875,2.06639328 C0.875,1.51410853 1.32271525,1.06639328 1.875,1.06639328 L11.2083333,1.06639328 L11.2083333,5.06639328 C11.2083333,5.70581636 11.765625,6.22023944 12.4583333,6.22023944 L15.975,6.22023944 L15.975,20.0663933 C15.975,20.618678 15.5272847,21.0663933 14.975,21.0663933 L1.875,21.0663933 C1.32271525,21.0663933 0.875,20.618678 0.875,20.0663933 Z" id="Path" fill="#FFFFFF"></path>
                </g>
            </g>
        </g>
    </g>
</svg>